<?xml version="1.0" encoding="utf-8"?>
<!-- Generator: Adobe Illustrator 22.1.0, SVG Export Plug-In . SVG Version: 6.00 Build 0)  -->
<svg version="1.1" id="Layer_1" xmlns="http://www.w3.org/2000/svg" xmlns:xlink="http://www.w3.org/1999/xlink" x="0px" y="0px"
	 viewBox="0 0 1200 768" style="enable-background:new 0 0 1200 768;" xml:space="preserve">
<style type="text/css">
	.st0{fill:none;stroke:#000000;stroke-miterlimit:10;}
	.st1{font-family:'MyriadPro-Regular';}
	.st2{font-size:12px;}
	.st3{fill:none;}
</style>
<rect x="33" y="238.5" class="st0" width="307" height="161.5"/>
<text transform="matrix(1 0 0 1 94.2041 266.5703)" class="st1 st2">Testimonials</text>
<rect x="731" y="242.5" class="st0" width="307" height="161.5"/>
<rect x="382" y="238.5" class="st0" width="307" height="161.5"/>
<text transform="matrix(1 0 0 1 464.2041 272.5703)" class="st1 st2">Passion Test</text>
<rect x="29" y="45.5" class="st0" width="307" height="161.5"/>
<text transform="matrix(1 0 0 1 88.2041 84.5703)" class="st1 st2">Home</text>
<rect x="735" y="45.5" class="st0" width="307" height="161.5"/>
<text transform="matrix(1 0 0 1 794.2041 90.5703)" class="st1 st2">Career Coaching/Speaking</text>
<rect x="382" y="45.5" class="st0" width="307" height="161.5"/>
<rect x="33" y="431.5" class="st0" width="307" height="161.5"/>
<text transform="matrix(1 0 0 1 119.2041 472.5703)" class="st1 st2">Contact</text>
<path class="st0" d="M382,593"/>
<path class="st0" d="M689,593"/>
<text transform="matrix(1 0 0 1 436.8604 86.7529)" class="st1 st2">About</text>
<line class="st3" x1="336" y1="119" x2="382" y2="118"/>
<line x1="689" y1="126" x2="731" y2="126"/>
<line class="st3" x1="336" y1="119" x2="382" y2="118"/>
<line class="st0" x1="335.5" y1="118.5" x2="381.5" y2="117.5"/>
<line class="st0" x1="688.5" y1="125.5" x2="730.5" y2="125.5"/>
<text transform="matrix(1 0 0 1 817.5059 265.2471)" class="st1 st2">Rates</text>
<line class="st0" x1="888.5" y1="206.5" x2="888.5" y2="242.5"/>
<line class="st0" x1="730.5" y1="319.5" x2="688.5" y2="319.5"/>
<line class="st0" x1="381.5" y1="323.5" x2="339.5" y2="323.5"/>
<line class="st0" x1="182.5" y1="399.5" x2="182.5" y2="431.5"/>
</svg>
